# xmcd CD database file
#
# Track frame offsets:
#	150
#	27000
#	52238
#	81522
#	108056
#	123557
#	147711
#	173552
#	193750
#
# Disc length: 2903 seconds
#
# Revision: 0
# Processed by: cddbd v1.5.2PL0 Copyright (c) Steve Scherf et al.
# Submitted via: CDex 1.51
#
DISCID=7f0b5509
DTITLE=Blue Motion Trio feat. Joscho Stephan - Smile
DYEAR=2015
DGENRE=Jazz
TTITLE0=Got My Mojo Working
TTITLE1=Smile
TTITLE2=Caravan
TTITLE3=Killer Joe
TTITLE4=Four Brothers
TTITLE5=Nuages
TTITLE6=Spunky
TTITLE7=Sway
TTITLE8=Reunion Blues
EXTD=YEAR: 2015
EXTT0=
EXTT1=
EXTT2=
EXTT3=
EXTT4=
EXTT5=
EXTT6=
EXTT7=
EXTT8=
PLAYORDER=
